<?xml version="1.0" standalone="no"?>
<!DOCTYPE svg PUBLIC "-//W3C//DTD SVG 20010904//EN"
 "http://www.w3.org/TR/2001/REC-SVG-20010904/DTD/svg10.dtd">
<svg version="1.0" xmlns="http://www.w3.org/2000/svg"
 width="700.000000pt" height="700.000000pt" viewBox="0 0 700.000000 700.000000"
 preserveAspectRatio="xMidYMid meet">
<metadata>
Created by potrace 1.11, written by Peter Selinger 2001-2013
</metadata>
<g transform="translate(0.000000,700.000000) scale(0.100000,-0.100000)"
fill="#000000" stroke="none">
<path d="M2629 6998 c-1 -2 -2 -132 -3 -291 -1 -185 3 -287 9 -288 38 -4 1728
-3 1734 1 3 3 6 134 6 292 l0 288 -872 0 c-480 0 -874 -1 -874 -2z"/>
<path d="M2637 5830 c-9 -4 -12 -77 -12 -292 l0 -288 872 0 c691 0 873 3 874
13 7 72 2 567 -6 568 -40 4 -1718 3 -1728 -1z"/>
<path d="M2629 4661 c-3 -14 -5 -557 -2 -566 3 -8 275 -10 871 -9 477 0 869 2
872 3 3 0 5 131 5 289 l0 288 -872 0 c-480 0 -874 -2 -874 -5z"/>
<path d="M2551 3217 c-40 -155 -77 -295 -83 -312 -5 -16 -53 -199 -107 -405
-55 -206 -115 -436 -135 -510 -168 -634 -177 -676 -180 -855 -6 -292 91 -534
294 -735 213 -211 509 -336 915 -387 121 -15 489 -7 580 12 11 2 38 7 60 10
118 17 306 76 433 136 281 133 480 342 570 600 42 120 56 207 55 349 0 166
-13 248 -80 495 -19 72 -36 137 -38 145 -3 13 -50 190 -155 585 -12 44 -35
132 -51 195 -49 184 -71 268 -150 565 -16 61 -46 174 -66 253 l-37 142 -876 0
-875 0 -74 -283z m1133 -1518 c23 -4 57 -9 76 -12 119 -16 290 -82 383 -145
150 -104 230 -251 226 -417 -3 -121 -39 -209 -121 -295 -148 -156 -423 -250
-738 -252 -113 0 -148 2 -245 18 -79 13 -91 15 -107 20 -9 3 -25 7 -35 9 -50
10 -174 62 -236 99 -170 101 -258 238 -258 401 0 128 26 200 109 304 84 104
297 220 452 246 19 3 58 10 85 15 28 6 61 11 75 13 48 7 294 4 334 -4z"/>
</g>
</svg>
